<?xml version="1.0" encoding="UTF-8" standalone="no"?><svg xmlns="http://www.w3.org/2000/svg" xmlns:xlink="http://www.w3.org/1999/xlink" fill="#000000" height="284" preserveAspectRatio="xMidYMid meet" version="1" viewBox="-0.1 -0.4 395.0 284.0" width="395" zoomAndPan="magnify"><g fill="#ffad60" id="change1_1"><path d="M134.33,184.8c8.96-2.48,17.96-5.14,26.79-7.84c8.87-2.72,17.35-5.25,26.09-7.09 c8.78-1.82,17.73-3.47,26.44-4.55c4.36-0.52,8.65-0.86,12.84-0.77c4.16,0.09,8.57,0.68,12.88,1.47c8.67,1.65,17.28,4.61,25.85,8.51 c-6.4-6.91-14.41-12.52-23.36-16.4c-2.24-0.98-4.53-1.83-6.87-2.58c-2.31-0.78-4.76-1.38-7.25-1.88 c-4.99-0.94-9.97-1.24-14.82-1.23c-9.73,0.06-19.07,1.14-28.46,2.59c-9.43,1.44-18.81,3.69-27.74,5.9 c-8.96,2.21-17.81,4.3-26.77,6.25c-9.01,1.94-18.02,4.01-26.8,5.7c-4.39,0.84-8.69,1.54-12.78,1.94c-2.08,0.18-3.95,0.3-6.05,0.33 l-6.81,0.09c-8.92,0.07-17.33-0.39-24.69-2.28c-14.58-3.58-25.09-14.88-28.97-29.81c-1.08-3.69-1.68-7.61-2.02-11.58 c-0.32-3.94-0.33-8.09,0.05-11.84c0.9-7.88,2.99-15.43,6.8-21.89c3.74-6.47,9.27-11.71,15.73-15.55c6.44-3.84,14.04-6.1,22.04-6.89 c2-0.17,4.01-0.27,6.01-0.26c1,0.03,2,0.11,3.01,0.16c1.02,0.03,2.02,0.14,3.03,0.28c4.04,0.49,8.13,1.37,12.14,2.81 c8.06,2.81,15.86,7.4,23.16,13.45c-3.61-8.85-10.1-16.66-18.32-22.55c-4.11-2.97-8.75-5.32-13.66-7.05 c-4.89-1.74-10.13-2.89-15.36-3.2c-10.44-0.79-21.4,1.13-31.24,6.03c-9.8,4.89-18.26,12.64-24.13,21.96 c-5.88,9.31-9.25,19.84-10.52,30.27c-0.64,5.43-0.69,10.55-0.38,15.82c0.35,5.23,1.07,10.49,2.47,15.7 c1.45,5.18,3.27,10.37,6.01,15.24l0.98,1.84c0.36,0.6,0.75,1.18,1.13,1.77l2.32,3.51l2.66,3.29l1.35,1.63l1.49,1.5 c7.73,8.22,18.48,13.8,29.04,16.25c10.62,2.56,20.86,2.44,30.35,2.1l7.03-0.34c2.51-0.13,5.24-0.36,7.75-0.72 c5.07-0.73,9.85-1.76,14.49-2.87C116.53,189.76,125.42,187.28,134.33,184.8z" fill="inherit"/><path d="M394.78,107.75c-0.13-3.73-0.53-7.44-1.2-11.09c-0.67-3.65-1.61-7.24-2.81-10.77 c-0.31-0.88-0.62-1.76-0.96-2.62c-0.33-0.86-0.67-1.67-1.07-2.54c-0.77-1.71-1.51-3.42-2.43-5.06c-1.7-3.35-3.8-6.48-5.98-9.52 c-2.28-2.97-4.68-5.84-7.33-8.43c-5.24-5.23-11.21-9.65-17.3-13.22l-2.24-1.28l-1.1-0.61l-1.21-0.62 c-1.62-0.84-3.24-1.66-4.92-2.37c-3.31-1.53-6.77-2.72-10.24-3.78c-6.99-2.02-14.19-3.13-21.28-3.34 c-3.54-0.11-7.06-0.02-10.46,0.24c-1.71,0.13-3.36,0.27-4.96,0.46c-1.73,0.23-3.47,0.4-5.18,0.71c-6.88,1.13-13.62,2.94-19.99,5.55 c-3.59,1.43-7.06,3.11-10.41,4.98c-0.95-1.75-1.95-3.48-3.02-5.17c-1.36-2.18-2.86-4.27-4.44-6.31c-0.82-1.05-1.54-1.97-2.34-2.94 c-0.79-0.97-1.61-1.95-2.47-2.91c-6.84-7.68-15.27-14.46-24.95-19.19c-9.64-4.82-20.47-7.36-31.24-7.84 c-10.79-0.44-21.5,1.45-31.43,4.71c-4.57,1.53-9.57,3.43-14.27,5.93c-4.72,2.47-9.23,5.49-13.33,9.03 c-4.08,3.57-7.76,7.63-10.85,12.07c-3.08,4.44-5.71,9.14-7.56,14.11c-3.95,9.83-5.27,20.39-4.32,30.3 c0.41,4.97,1.48,9.8,2.92,14.41c1.48,4.61,3.39,9.03,5.86,13.06c-0.88-9.37-0.42-18.48,1.48-26.94c1.93-8.44,5.2-16.14,9.89-22.59 c1.11-1.65,2.4-3.15,3.63-4.66c1.35-1.43,2.64-2.86,4.11-4.12c2.87-2.58,5.9-4.88,9.13-6.9c3.21-2.05,6.59-3.84,10.11-5.47 c3.53-1.65,7.15-3.02,11.29-4.47c7.47-2.67,15.16-4.06,22.8-4.06c7.62-0.03,15.12,1.47,22.24,4.3c7.07,2.93,13.73,7.22,19.72,12.72 c0.76,0.68,1.51,1.38,2.27,2.12c0.75,0.72,1.55,1.53,2.24,2.23c1.42,1.45,2.78,2.97,4.11,4.53c2.63,3.13,5.07,6.47,7.27,10.01 l0,0.01l3.99,6.37l7.57-2.71c5.4-1.93,10.8-3.52,16.23-4.68c5.45-1.11,10.89-1.87,16.33-2.11c1.36-0.1,2.72-0.08,4.07-0.12 c1.49,0,2.93-0.04,4.32-0.01c2.79,0.04,5.47,0.18,8.12,0.42c2.65,0.26,5.23,0.65,7.78,1.15c2.55,0.5,5.03,1.19,7.48,1.91 c2.42,0.84,4.83,1.67,7.15,2.75c1.18,0.49,2.31,1.08,3.45,1.67l0.86,0.43l0.94,0.5l1.81,1c4.64,2.61,8.75,5.59,12.35,9.05 c1.82,1.71,3.42,3.58,4.96,5.49c1.44,1.98,2.87,3.97,4,6.14c0.63,1.05,1.12,2.18,1.65,3.28c0.27,0.53,0.54,1.14,0.77,1.73l0.7,1.72 c0.88,2.31,1.6,4.71,2.14,7.13c0.54,2.43,0.9,4.88,1.08,7.34c0.14,2.46,0.11,4.91-0.09,7.34c-0.51,4.86-1.71,9.64-3.68,14.1 c-0.96,2.25-2.2,4.4-3.53,6.52c-1.38,2.1-2.95,4.13-4.67,6.11c-1.72,1.98-3.65,3.87-5.7,5.76c-1.03,0.94-2.08,1.89-3.2,2.85 c-1.09,0.95-2.33,2-3.33,2.81c-4.19,3.48-8.78,6.48-13.69,9.02c-4.92,2.55-10.13,4.7-15.69,6.5c-2.76,0.92-5.67,1.74-8.59,2.62 c-2.79,0.83-5.61,1.57-8.46,2.21c-5.7,1.26-11.49,2.29-17.35,2.86l-9.03,0.24l1.5,66.44c-4.27-1.46-8.69-2.74-13.22-3.65 c-4.13-0.85-8.4-1.36-12.59-1.54c-4.24-0.21-8.44-0.03-12.53,0.33c-8.2,0.75-16.08,2.27-23.83,4.04 c-7.74,1.82-15.33,3.85-22.95,6.27c-3.8,1.21-7.6,2.55-11.29,3.95c-3.7,1.4-7.26,2.82-10.78,4.08c-1.77,0.63-3.53,1.24-5.31,1.8 c-0.89,0.29-1.78,0.57-2.68,0.83l-2.79,0.84c-3.9,1.18-7.58,2.46-11.22,3.66c-7.26,2.43-14.41,4.49-21.71,5.85 c-5.81,1.09-11.68,1.69-17.58,1.87c-3.57-23.85-7.66-47.47-10.77-71.3c-0.26,25.74,0.64,51.55,0.77,77.17l0.02,4.87l5.24,0.12h0 c8.1,0.22,16.26-0.32,24.26-1.66c7.99-1.32,15.83-3.44,23.32-5.79c3.75-1.16,7.43-2.36,10.97-3.35l2.8-0.78 c0.97-0.26,1.93-0.54,2.89-0.83c1.93-0.57,3.85-1.18,5.75-1.82c3.81-1.28,7.49-2.67,11.07-3.94c3.58-1.28,7.13-2.46,10.75-3.53 c7.21-2.14,14.66-3.98,22.06-5.58c7.4-1.55,14.82-2.82,22.09-3.34c3.63-0.25,7.21-0.33,10.72-0.09c3.55,0.23,7.01,0.7,10.46,1.48 c6.97,1.53,13.73,4.08,20.74,7.12l0,0l10.17,4.23l-0.26-11l-1.47-62.63c4.85-0.04,9.71-0.31,14.55-0.91 c3.26-0.39,6.52-0.89,9.76-1.49c3.1-0.56,6.22-1.21,9.43-1.96c6.39-1.49,12.92-3.43,19.24-6.14c6.31-2.72,12.42-6.1,18.08-10.15 c1.49-1.05,2.67-1.92,4-2.91c1.3-0.98,2.64-1.99,3.96-3.08c2.63-2.17,5.27-4.48,7.76-7.05c2.5-2.56,4.88-5.32,7.07-8.28 c2.15-3,4.17-6.14,5.85-9.5c3.46-6.69,5.58-14.02,6.61-21.45C394.69,115.24,394.88,111.49,394.78,107.75z" fill="inherit"/></g></svg>