<?xml version="1.0" encoding="UTF-8"?><svg xmlns="http://www.w3.org/2000/svg" xmlns:xlink="http://www.w3.org/1999/xlink" height="34.8" preserveAspectRatio="xMidYMid meet" version="1.0" viewBox="8.0 14.6 48.0 34.8" width="48.0" zoomAndPan="magnify"><g id="change1_1"><rect fill="#ccd8e5" height="34.78" rx="3.14" width="47.94" x="8.03" y="14.61"/></g><g id="change2_1"><path d="m32 36.96-21.32-15.55-.15-.11-2.5-1.82v1.85l1.72 1.25.15.11 21.32 15.55z" fill="#cad0d8"/></g><g id="change2_2"><path d="m56 18.72-17.59 12.83-6.91 5-17.5 12.84h1.64l13.75-10a5 5 0 0 1 5.89 0l10.67 7.79a11.77 11.77 0 0 0 6.92 2.25 3.13 3.13 0 0 0 3.13-3.18v-26.33z" fill="#cad0d8"/></g><g id="change3_1"><path d="m56 17.75v28.5a2.89 2.89 0 0 1 -.13.88 3.13 3.13 0 0 1 -3 2.26 2.32 2.32 0 0 1 -2.32-2.32v-30.87l.15-.11 2-1.48h.14a3.15 3.15 0 0 1 3.16 3.14z" fill="#156cdd"/></g><g id="change4_1"><path d="m52.83 14.61a.5.5 0 0 0 -.26.08l-1.91 1.4-.15.11-17.95 13.11a.68.68 0 0 1 -.79 0l-18.28-13.31-1.73-1.27a.5.5 0 0 0 -.26-.08h-.33a3.15 3.15 0 0 0 -3.17 3.1v28.5a2.89 2.89 0 0 0 .13.88 3.13 3.13 0 0 0 3 2.26 2.32 2.32 0 0 0 2.32-2.32v-23.63l13.55 9.9 4.45 3.25a1.41 1.41 0 0 0 1.66 0l4.29-3.14 13.07-9.54.15-.11 5.38-3.88v-2.17a3.15 3.15 0 0 0 -3.17-3.14z" fill="#0795ff"/></g><g id="change3_2"><path d="m13.49 23.46-2.81-2.05-.15-.11-2.5-1.82v1.85l1.72 1.25.15.11 3.59 2.62z" fill="#156cdd"/></g></svg>